<svg width="800" height="500" xmlns="http://www.w3.org/2000/svg" viewBox="0 0 800 500">
  <!-- 背景 -->
  <rect width="800" height="500" rx="8" fill="#ffffff" stroke="#dddddd" stroke-width="2"/>
  
  <!-- 标题 -->
  <text x="40" y="50" font-family="Arial" font-size="24" font-weight="bold" fill="#333333">包管理</text>
  
  <!-- 说明文字 -->
  <text x="40" y="80" font-family="Arial" font-size="14" fill="#666666">搜索、安装和管理 Python 包</text>
  
  <!-- 搜索框 -->
  <rect x="40" y="100" width="600" height="40" rx="20" fill="#ffffff" stroke="#dddddd" stroke-width="1"/>
  <text x="60" y="125" font-family="Arial" font-size="14" fill="#999999">搜索包...</text>
  
  <rect x="650" y="100" width="110" height="40" rx="20" fill="#4a86e8"/>
  <text x="705" y="125" font-family="Arial" font-size="14" fill="white" text-anchor="middle">搜索</text>
  
  <!-- 包选择下拉框 -->
  <rect x="40" y="160" width="250" height="40" rx="4" fill="#ffffff" stroke="#dddddd" stroke-width="1"/>
  <text x="60" y="185" font-family="Arial" font-size="14" fill="#333333">环境：project_env (Python 3.10.0)</text>
  <polygon points="270,175 280,165 290,175" fill="#666666"/>
  
  <!-- 包列表表头 -->
  <rect x="40" y="210" width="720" height="40" rx="4" fill="#f5f5f5"/>
  <text x="60" y="235" font-family="Arial" font-size="14" font-weight="bold" fill="#333333">包名称</text>
  <text x="300" y="235" font-family="Arial" font-size="14" font-weight="bold" fill="#333333">已安装版本</text>
  <text x="500" y="235" font-family="Arial" font-size="14" font-weight="bold" fill="#333333">最新版本</text>
  <text x="690" y="235" font-family="Arial" font-size="14" font-weight="bold" fill="#333333">操作</text>
  
  <!-- 包列表项 -->
  <rect x="40" y="260" width="720" height="60" rx="4" fill="#ffffff" stroke="#e6f0ff" stroke-width="2"/>
  <text x="60" y="290" font-family="Arial" font-size="16" fill="#333333">numpy</text>
  <text x="300" y="290" font-family="Arial" font-size="14" fill="#666666">1.21.0</text>
  <text x="500" y="290" font-family="Arial" font-size="14" fill="#4a86e8">1.23.5</text>
  <rect x="650" y="275" width="100" height="30" rx="4" fill="#ffffff" stroke="#4a86e8" stroke-width="1"/>
  <text x="700" y="295" font-family="Arial" font-size="12" fill="#4a86e8" text-anchor="middle">更新</text>
  
  <rect x="40" y="330" width="720" height="60" rx="4" fill="#ffffff" stroke="#dddddd" stroke-width="1"/>
  <text x="60" y="360" font-family="Arial" font-size="16" fill="#333333">pandas</text>
  <text x="300" y="360" font-family="Arial" font-size="14" fill="#666666">1.3.4</text>
  <text x="500" y="360" font-family="Arial" font-size="14" fill="#666666">1.3.4</text>
  <rect x="650" y="345" width="100" height="30" rx="4" fill="#ffffff" stroke="#ff6058" stroke-width="1"/>
  <text x="700" y="365" font-family="Arial" font-size="12" fill="#ff6058" text-anchor="middle">卸载</text>
  
  <rect x="40" y="400" width="720" height="60" rx="4" fill="#ffffff" stroke="#dddddd" stroke-width="1"/>
  <text x="60" y="430" font-family="Arial" font-size="16" fill="#333333">matplotlib</text>
  <text x="300" y="430" font-family="Arial" font-size="14" fill="#666666">3.5.0</text>
  <text x="500" y="430" font-family="Arial" font-size="14" fill="#666666">3.5.0</text>
  <rect x="650" y="415" width="100" height="30" rx="4" fill="#ffffff" stroke="#ff6058" stroke-width="1"/>
  <text x="700" y="435" font-family="Arial" font-size="12" fill="#ff6058" text-anchor="middle">卸载</text>
</svg> 